<mxfile host="app.diagrams.net" agent="Mozilla/5.0 (Windows NT 10.0; Win64; x64) AppleWebKit/537.36 (KHTML, like Gecko) Chrome/130.0.0.0 Safari/537.36" version="24.8.0">
  <diagram name="Page-1" id="PnSGMqapPATFpCUzwmAE">
    <mxGraphModel dx="880" dy="426" grid="1" gridSize="10" guides="1" tooltips="1" connect="1" arrows="1" fold="1" page="1" pageScale="1" pageWidth="850" pageHeight="1100" math="0" shadow="0">
      <root>
        <mxCell id="0" />
        <mxCell id="1" parent="0" />
        <mxCell id="L4zJH4hxyr6IznGPQIIQ-8" value="" style="swimlane;startSize=0;" vertex="1" parent="1">
          <mxGeometry x="320" y="390" width="210" height="440" as="geometry" />
        </mxCell>
        <mxCell id="L4zJH4hxyr6IznGPQIIQ-9" value="Authentication" style="ellipse;whiteSpace=wrap;html=1;fillColor=#dae8fc;strokeColor=#6c8ebf;gradientColor=#7ea6e0;" vertex="1" parent="L4zJH4hxyr6IznGPQIIQ-8">
          <mxGeometry x="20" y="20" width="170" height="60" as="geometry" />
        </mxCell>
        <mxCell id="L4zJH4hxyr6IznGPQIIQ-10" value="Profile Management" style="ellipse;whiteSpace=wrap;html=1;fillColor=#dae8fc;strokeColor=#6c8ebf;gradientColor=#7ea6e0;" vertex="1" parent="L4zJH4hxyr6IznGPQIIQ-8">
          <mxGeometry x="20" y="100" width="170" height="60" as="geometry" />
        </mxCell>
        <mxCell id="L4zJH4hxyr6IznGPQIIQ-11" value="Input Processing" style="ellipse;whiteSpace=wrap;html=1;fillColor=#dae8fc;gradientColor=#7ea6e0;strokeColor=#6c8ebf;" vertex="1" parent="L4zJH4hxyr6IznGPQIIQ-8">
          <mxGeometry x="20" y="190" width="170" height="60" as="geometry" />
        </mxCell>
        <mxCell id="L4zJH4hxyr6IznGPQIIQ-12" value="Report Management" style="ellipse;whiteSpace=wrap;html=1;fillColor=#dae8fc;gradientColor=#7ea6e0;strokeColor=#6c8ebf;" vertex="1" parent="L4zJH4hxyr6IznGPQIIQ-8">
          <mxGeometry x="20" y="270" width="170" height="60" as="geometry" />
        </mxCell>
        <mxCell id="L4zJH4hxyr6IznGPQIIQ-13" value="Notification" style="ellipse;whiteSpace=wrap;html=1;fillColor=#dae8fc;gradientColor=#7ea6e0;strokeColor=#6c8ebf;" vertex="1" parent="L4zJH4hxyr6IznGPQIIQ-8">
          <mxGeometry x="20" y="350" width="170" height="60" as="geometry" />
        </mxCell>
        <mxCell id="L4zJH4hxyr6IznGPQIIQ-14" value="PAHT" style="text;html=1;align=center;verticalAlign=middle;resizable=0;points=[];autosize=1;strokeColor=#6c8ebf;fillColor=#dae8fc;" vertex="1" parent="1">
          <mxGeometry x="400" y="350" width="50" height="30" as="geometry" />
        </mxCell>
        <mxCell id="L4zJH4hxyr6IznGPQIIQ-15" value="PAHT = Personal Automated Health Tracker" style="text;html=1;align=center;verticalAlign=middle;resizable=0;points=[];autosize=1;strokeColor=none;fillColor=none;" vertex="1" parent="1">
          <mxGeometry x="30" y="310" width="260" height="30" as="geometry" />
        </mxCell>
        <mxCell id="L4zJH4hxyr6IznGPQIIQ-16" value="Level - 1" style="text;html=1;align=center;verticalAlign=middle;resizable=0;points=[];autosize=1;strokeColor=none;fillColor=none;" vertex="1" parent="1">
          <mxGeometry x="395" y="838" width="70" height="30" as="geometry" />
        </mxCell>
      </root>
    </mxGraphModel>
  </diagram>
</mxfile>
